<svg width="58" height="58" viewBox="0 0 58 58" fill="none" xmlns="http://www.w3.org/2000/svg">
    <g filter="url(#filter0_d_237_224)">
        <path d="M0 10.9434C0 4.89952 4.89953 0 10.9434 0H58V47.0566C58 53.1005 53.1005 58 47.0566 58H0V10.9434Z" fill="#000013"/>
        <path d="M25.5672 24.9378C26.2209 25.0545 26.7754 25.3989 27.2306 25.9709C27.6859 26.5428 27.9135 27.1907 27.9135 27.9144C27.9135 28.5331 27.75 29.0934 27.4232 29.5953C27.1081 30.0856 26.647 30.4766 26.04 30.7685C25.4329 31.0486 24.7268 31.1887 23.9213 31.1887H19.0537V19.0196H23.6937C24.5225 19.0196 25.2345 19.1597 25.8299 19.4399C26.4252 19.72 26.8746 20.0994 27.1781 20.578C27.4815 21.0449 27.6333 21.5701 27.6333 22.1538C27.6333 22.8542 27.4465 23.4379 27.073 23.9048C26.6995 24.3717 26.1976 24.716 25.5672 24.9378ZM21.0498 24.1324H23.5186C24.1723 24.1324 24.68 23.9864 25.0419 23.6946C25.4154 23.3911 25.6022 22.9592 25.6022 22.3989C25.6022 21.8503 25.4154 21.4243 25.0419 21.1208C24.68 20.8056 24.1723 20.648 23.5186 20.648H21.0498V24.1324ZM23.7462 29.5603C24.4233 29.5603 24.9544 29.3969 25.3396 29.07C25.7248 28.7432 25.9174 28.288 25.9174 27.7043C25.9174 27.109 25.7131 26.6362 25.3046 26.286C24.896 25.9359 24.3532 25.7608 23.6762 25.7608H21.0498V29.5603H23.7462Z" fill="#DFE9E8"/>
        <path d="M34.4702 36.5685H40.1258V38.3019H32.1064V36.7435L37.7445 27.8663H32.1064V26.1328H40.1258V27.6912L34.4702 36.5685Z" fill="#DFE9E8"/>
    </g>
    <defs>
        <filter id="filter0_d_237_224" x="-4" y="0" width="66" height="66" filterUnits="userSpaceOnUse" color-interpolation-filters="sRGB">
            <feFlood flood-opacity="0" result="BackgroundImageFix"/>
            <feColorMatrix in="SourceAlpha" type="matrix" values="0 0 0 0 0 0 0 0 0 0 0 0 0 0 0 0 0 0 127 0" result="hardAlpha"/>
            <feOffset dy="4"/>
            <feGaussianBlur stdDeviation="2"/>
            <feComposite in2="hardAlpha" operator="out"/>
            <feColorMatrix type="matrix" values="0 0 0 0 1 0 0 0 0 1 0 0 0 0 1 0 0 0 0.05 0"/>
            <feBlend mode="normal" in2="BackgroundImageFix" result="effect1_dropShadow_237_224"/>
            <feBlend mode="normal" in="SourceGraphic" in2="effect1_dropShadow_237_224" result="shape"/>
        </filter>
    </defs>
</svg>
