<svg width="56" height="55" viewBox="0 0 56 55" fill="none" xmlns="http://www.w3.org/2000/svg">
<path d="M19.5 29.625L25.875 36L36.5 21.125M53.5 27.5C53.5 30.8487 52.8404 34.1646 51.5589 37.2584C50.2774 40.3522 48.3991 43.1633 46.0312 45.5312C43.6633 47.8991 40.8522 49.7774 37.7584 51.0589C34.6646 52.3404 31.3487 53 28 53C24.6513 53 21.3354 52.3404 18.2416 51.0589C15.1478 49.7774 12.3367 47.8991 9.96878 45.5312C7.60088 43.1633 5.72257 40.3522 4.44107 37.2584C3.15958 34.1646 2.5 30.8487 2.5 27.5C2.5 20.737 5.1866 14.251 9.96878 9.46878C14.751 4.6866 21.237 2 28 2C34.763 2 41.249 4.6866 46.0312 9.46878C50.8134 14.251 53.5 20.737 53.5 27.5Z" stroke="#00ECBF" stroke-width="4" stroke-linecap="round" stroke-linejoin="round"/>
</svg>
